<svg width="512" height="512" viewBox="0 0 512 512" fill="none" xmlns="http://www.w3.org/2000/svg">
  <rect width="512" height="512" rx="120" fill="#111827"/>
  <rect x="0" y="0" width="512" height="512" rx="120" fill="url(#paint0_linear)"/>
  
  <!-- Outer Ring/Eye Iris -->
  <circle cx="256" cy="256" r="140" stroke="white" stroke-width="32" stroke-opacity="0.2"/>
  
  <!-- Blink/Shutter Effect -->
  <path d="M256 160C309.019 160 352 202.981 352 256C352 309.019 309.019 352 256 352C202.981 352 160 309.019 160 256C160 202.981 202.981 160 256 160Z" fill="url(#paint1_linear)"/>
  <path d="M256 224C273.673 224 288 238.327 288 256C288 273.673 273.673 288 256 288C238.327 288 224 273.673 224 256C224 238.327 238.327 224 256 224Z" fill="white"/>

  <!-- Speed Lines -->
  <path d="M440 256H480" stroke="#10B981" stroke-width="24" stroke-linecap="round"/>
  <path d="M32 256H72" stroke="#10B981" stroke-width="24" stroke-linecap="round"/>
  
  <defs>
    <linearGradient id="paint0_linear" x1="0" y1="0" x2="512" y2="512" gradientUnits="userSpaceOnUse">
      <stop stop-color="#1F2937"/>
      <stop offset="1" stop-color="#000000"/>
    </linearGradient>
    <linearGradient id="paint1_linear" x1="160" y1="160" x2="352" y2="352" gradientUnits="userSpaceOnUse">
      <stop stop-color="#10B981"/> <!-- Emerald Green -->
      <stop offset="1" stop-color="#059669"/>
    </linearGradient>
  </defs>
</svg>