<svg viewBox="0 0 100 100" xmlns="http://www.w3.org/2000/svg">
  <defs>
    <linearGradient id="fm-power-grad" x1="0%" y1="0%" x2="100%" y2="100%">
      <stop offset="0%" stop-color="#fbbf24" />
      <stop offset="100%" stop-color="#ea580c" />
    </linearGradient>
  </defs>
  <rect x="0" y="0" width="100" height="100" rx="22" fill="url(#fm-power-grad)" />
  <path d="M0 0 H100 A22 22 0 0 1 100 22 V50 C100 50 80 30 50 30 C20 30 0 50 0 50 V22 A22 22 0 0 1 0 0 Z" fill="white" opacity="0.1" />
  <path d="M25 35 C25 30 29 26 34 26 H70 C75 26 79 30 79 35 V40 H70 C65 40 65 48 70 48 H79 V65 C79 70 75 74 70 74 H34 C29 74 25 70 25 65 V35 Z" fill="white" />
  <path d="M52 38 L45 50 H55 L48 62" stroke="#ea580c" stroke-width="4" stroke-linecap="round" stroke-linejoin="round" fill="none" />
</svg>
